<?xml version="1.0" encoding="UTF-8"?>
<svg xmlns="http://www.w3.org/2000/svg" version="1.1" viewBox="0 0 841.89 595.28">
  <!-- Generator: Adobe Illustrator 29.3.1, SVG Export Plug-In . SVG Version: 2.1.0 Build 151)  -->
  <defs>
    <style>
      .st0 {
        fill: none;
        stroke: red;
        stroke-miterlimit: 10;
      }

      .st1 {
        fill: #104fb5;
      }

      .st2 {
        fill: #1d1d1b;
      }

      .st3 {
        font-family: AriaTextG2-Regular, 'Aria Text G2';
        font-size: 89.42px;
      }

      .st4 {
        fill: #6e6e6e;
      }
    </style>
  </defs>
  <g id="Capa_3">
    <g>
      <path class="st0" d="M345.37,321.01"/>
      <rect class="st4" x="620.87" y="255.46" width="23.66" height="23.08"/>
      <rect class="st4" x="650.21" y="255.37" width="23.66" height="23.08"/>
      <rect class="st4" x="620.87" y="286.68" width="23.66" height="23.08"/>
      <rect class="st4" x="650.21" y="286.68" width="23.66" height="23.08"/>
      <polygon points="146.99 303.89 128.28 321.01 54.84 321.01 255.43 121.98 421.94 148.16 477.7 194.94 484.03 188.91 652.37 183.16 519.93 321.01 346.37 321.01 394.03 274.94 255.03 136.33 92.18 303.49 146.99 303.89"/>
      <polygon points="647.26 187.44 651.37 183.16 779.32 321.01 647.26 187.44"/>
      <polygon points="651.37 183.16 647.26 179.05 483.03 188.91 651.37 183.16"/>
    </g>
  </g>
  <g id="Capa_4">
    <text class="st3" transform="translate(134.81 431.05)"><tspan class="st2" x="0" y="0">Finques </tspan><tspan class="st1" x="337.57" y="0">T</tspan><tspan class="st2" x="396.59" y="0">ri</tspan><tspan class="st1" x="460.17" y="0">M</tspan><tspan class="st2" x="541.54" y="0">ar</tspan></text>
  </g>
  <g id="Capa_2">
    <path class="st1" d="M300.65,318.26c-2.04,1.23-3.94,1.12-5.82,1.39-2.22.32-4.93.46-11.1,1.04,16.38-.02,32.72.02,49.11,0-1.69-.21-7.72-.56-10.28-.77-7.61-.64-7.64-.69-8.94-3.01-.32-.58-.4-1.17-.41-1.65v-.13l-1.36-88.83c-.04-.24-.07-.62.06-1.02.59-1.84,3.87-2.28,7.8-2.76,4.23-.51,7.92-.91,10.91-1.21-9.44.02-18.87.04-28.31.06l-34.58,84.56-33.11-82.92c1.21,0,1.64.04,2.3.14,2.36.34,4.3.72,6.63,1.9,3.42,1.73,5.23,4.36,7.35,7.45,1.07,1.55,1.25,2.07,4.76,8.63,1.28,2.39,2.35,4.36,3.06,5.67-1.83-8.52-3.67-17.05-5.5-25.57h-73.24l-6.99,24.66c.6-.88,1.53-2.23,2.65-3.9,3.06-4.56,3.2-4.96,4.7-7.08,2.38-3.37,3.73-5.24,6.11-7.32,1.17-1.02,2.68-2.32,5.03-3.38,2.11-.95,3.85-1.23,5.65-1.5,1.57-.24,3.12-.31,5.21-.31,1.1.12,2.24.24,3.44.37,2.25.24,4.26.47,6.91,1.15,1.97.5,3.57,1.07,4.67,1.5-.71,29.17-1.42,58.33-2.13,87.49-.06.88-.28,2.14-1.13,3.22-1.5,1.9-4.31,2.64-6.84,3.12-2.74.53-7.15.79-12.49,1.44h40.88c-.96-.1.87.09,0,0h9.54c-5.25-.32-9.91-.78-12.94-1.66-4.63-1.35-7.01-1.58-8.27-3.89-.42-.77-.49-1.54-.49-2.08l1.48-85.7c.19.24.45.58.74,1.02.97,1.41,1.5,2.61,1.78,3.24,1.74,3.94,2.34,5.6,2.34,5.6,1,2.75,2.06,5.47,3.03,8.23.85,2.4,2.02,5.43,4.37,11.49,4.11,10.63,8.26,20.77,8.68,21.8,3.77,9.23,9.14,21.57,17.28,41.95l38.25-92.84,1.58,86.79c.05.46.07,1.29-.42,1.97-.46.64-.78.96-1.93,1.65ZM221.57,312.63c-.05.88-.27,2.14-1.12,3.22-.36.46-.78.81-1.25,1.09-.69-.37-1.23-.87-1.6-1.53-.42-.77-.49-1.54-.49-2.08l1.48-85.71.07-2.12-.06-.15c.49-.33,1.18-.7,1.93-1.02,1.31.5,2.33,1.12,3.13,1.75-.68,28.14-1.41,58.62-2.09,86.55Z"/>
  </g>
</svg>